<mxfile host="app.diagrams.net" modified="2024-06-26T21:55:37.376Z" agent="Mozilla/5.0 (Windows NT 10.0; Win64; x64) AppleWebKit/537.36 (KHTML, like Gecko) Chrome/126.0.0.0 Safari/537.36 Edg/126.0.0.0" etag="vST63734xlct9Iprow73" version="24.0.7" type="device">
  <diagram name="Page-1" id="AIk0Q2GmdtSzgIbApq3y">
    <mxGraphModel dx="1426" dy="785" grid="1" gridSize="10" guides="1" tooltips="1" connect="1" arrows="1" fold="1" page="1" pageScale="1" pageWidth="850" pageHeight="1100" math="0" shadow="0">
      <root>
        <mxCell id="0" />
        <mxCell id="1" parent="0" />
        <mxCell id="5yJc1-C0Uq-N8i1GRbMO-1" value="18650 Battery" style="rounded=1;whiteSpace=wrap;html=1;fillColor=#f8cecc;strokeColor=#b85450;" vertex="1" parent="1">
          <mxGeometry x="190" y="200" width="280" height="60" as="geometry" />
        </mxCell>
        <mxCell id="5yJc1-C0Uq-N8i1GRbMO-2" value="+" style="text;html=1;align=center;verticalAlign=middle;whiteSpace=wrap;rounded=0;" vertex="1" parent="1">
          <mxGeometry x="445" y="215" width="25" height="30" as="geometry" />
        </mxCell>
        <mxCell id="5yJc1-C0Uq-N8i1GRbMO-3" value="-" style="text;html=1;align=center;verticalAlign=middle;whiteSpace=wrap;rounded=0;" vertex="1" parent="1">
          <mxGeometry x="190" y="215" width="25" height="30" as="geometry" />
        </mxCell>
        <mxCell id="5yJc1-C0Uq-N8i1GRbMO-5" value="18650 Battery" style="rounded=1;whiteSpace=wrap;html=1;fillColor=#f8cecc;strokeColor=#b85450;" vertex="1" parent="1">
          <mxGeometry x="190" y="270" width="280" height="60" as="geometry" />
        </mxCell>
        <mxCell id="5yJc1-C0Uq-N8i1GRbMO-6" value="-" style="text;html=1;align=center;verticalAlign=middle;whiteSpace=wrap;rounded=0;" vertex="1" parent="1">
          <mxGeometry x="445" y="285" width="25" height="30" as="geometry" />
        </mxCell>
        <mxCell id="5yJc1-C0Uq-N8i1GRbMO-7" value="+" style="text;html=1;align=center;verticalAlign=middle;whiteSpace=wrap;rounded=0;" vertex="1" parent="1">
          <mxGeometry x="190" y="285" width="25" height="30" as="geometry" />
        </mxCell>
        <mxCell id="5yJc1-C0Uq-N8i1GRbMO-8" value="" style="endArrow=none;html=1;rounded=0;" edge="1" parent="1">
          <mxGeometry width="50" height="50" relative="1" as="geometry">
            <mxPoint x="190" y="300" as="sourcePoint" />
            <mxPoint x="150" y="300" as="targetPoint" />
          </mxGeometry>
        </mxCell>
        <mxCell id="5yJc1-C0Uq-N8i1GRbMO-9" value="" style="endArrow=none;html=1;rounded=0;" edge="1" parent="1">
          <mxGeometry width="50" height="50" relative="1" as="geometry">
            <mxPoint x="150" y="230" as="sourcePoint" />
            <mxPoint x="150" y="300" as="targetPoint" />
          </mxGeometry>
        </mxCell>
        <mxCell id="5yJc1-C0Uq-N8i1GRbMO-10" value="" style="endArrow=none;html=1;rounded=0;" edge="1" parent="1">
          <mxGeometry width="50" height="50" relative="1" as="geometry">
            <mxPoint x="190" y="229.66" as="sourcePoint" />
            <mxPoint x="150" y="229.66" as="targetPoint" />
          </mxGeometry>
        </mxCell>
        <mxCell id="5yJc1-C0Uq-N8i1GRbMO-11" value="" style="endArrow=none;html=1;rounded=0;exitX=1;exitY=0.5;exitDx=0;exitDy=0;fillColor=#f8cecc;strokeColor=#b85450;" edge="1" parent="1" source="5yJc1-C0Uq-N8i1GRbMO-1">
          <mxGeometry width="50" height="50" relative="1" as="geometry">
            <mxPoint x="560" y="360" as="sourcePoint" />
            <mxPoint x="570" y="230" as="targetPoint" />
          </mxGeometry>
        </mxCell>
        <mxCell id="5yJc1-C0Uq-N8i1GRbMO-12" value="" style="endArrow=none;html=1;rounded=0;exitX=1;exitY=0.5;exitDx=0;exitDy=0;" edge="1" parent="1">
          <mxGeometry width="50" height="50" relative="1" as="geometry">
            <mxPoint x="470" y="299.65999999999997" as="sourcePoint" />
            <mxPoint x="570" y="299.65999999999997" as="targetPoint" />
          </mxGeometry>
        </mxCell>
        <mxCell id="5yJc1-C0Uq-N8i1GRbMO-13" value="" style="endArrow=none;dashed=1;html=1;rounded=0;fillColor=#d5e8d4;strokeColor=#82b366;" edge="1" parent="1">
          <mxGeometry width="50" height="50" relative="1" as="geometry">
            <mxPoint x="570" y="230" as="sourcePoint" />
            <mxPoint x="640" y="230" as="targetPoint" />
          </mxGeometry>
        </mxCell>
        <mxCell id="5yJc1-C0Uq-N8i1GRbMO-14" value="" style="endArrow=none;dashed=1;html=1;rounded=0;fillColor=#d5e8d4;strokeColor=#82b366;" edge="1" parent="1">
          <mxGeometry width="50" height="50" relative="1" as="geometry">
            <mxPoint x="570" y="299.65999999999997" as="sourcePoint" />
            <mxPoint x="640" y="299.65999999999997" as="targetPoint" />
          </mxGeometry>
        </mxCell>
        <mxCell id="5yJc1-C0Uq-N8i1GRbMO-15" value="100k ohm resistor" style="text;html=1;align=center;verticalAlign=middle;whiteSpace=wrap;rounded=0;" vertex="1" parent="1">
          <mxGeometry x="580" y="200" width="60" height="30" as="geometry" />
        </mxCell>
        <mxCell id="5yJc1-C0Uq-N8i1GRbMO-16" value="47k ohm resistor" style="text;html=1;align=center;verticalAlign=middle;whiteSpace=wrap;rounded=0;" vertex="1" parent="1">
          <mxGeometry x="580" y="270" width="60" height="30" as="geometry" />
        </mxCell>
        <mxCell id="5yJc1-C0Uq-N8i1GRbMO-17" value="" style="endArrow=none;html=1;rounded=0;" edge="1" parent="1">
          <mxGeometry width="50" height="50" relative="1" as="geometry">
            <mxPoint x="540" y="380" as="sourcePoint" />
            <mxPoint x="540" y="300" as="targetPoint" />
          </mxGeometry>
        </mxCell>
        <mxCell id="5yJc1-C0Uq-N8i1GRbMO-18" value="" style="endArrow=none;html=1;rounded=0;entryX=1;entryY=1;entryDx=0;entryDy=0;fillColor=#f8cecc;strokeColor=#b85450;" edge="1" parent="1" target="5yJc1-C0Uq-N8i1GRbMO-15">
          <mxGeometry width="50" height="50" relative="1" as="geometry">
            <mxPoint x="670" y="260" as="sourcePoint" />
            <mxPoint x="610" y="310" as="targetPoint" />
          </mxGeometry>
        </mxCell>
        <mxCell id="5yJc1-C0Uq-N8i1GRbMO-19" value="" style="endArrow=none;html=1;rounded=0;exitX=1;exitY=0.5;exitDx=0;exitDy=0;" edge="1" parent="1">
          <mxGeometry width="50" height="50" relative="1" as="geometry">
            <mxPoint x="640" y="299.99999999999994" as="sourcePoint" />
            <mxPoint x="670" y="260" as="targetPoint" />
          </mxGeometry>
        </mxCell>
        <mxCell id="5yJc1-C0Uq-N8i1GRbMO-20" value="" style="endArrow=none;html=1;rounded=0;fillColor=#f8cecc;strokeColor=#b85450;entryX=0;entryY=0.5;entryDx=0;entryDy=0;" edge="1" parent="1" target="5yJc1-C0Uq-N8i1GRbMO-24">
          <mxGeometry width="50" height="50" relative="1" as="geometry">
            <mxPoint x="670" y="260" as="sourcePoint" />
            <mxPoint x="750" y="260" as="targetPoint" />
          </mxGeometry>
        </mxCell>
        <mxCell id="5yJc1-C0Uq-N8i1GRbMO-21" value="" style="endArrow=none;html=1;rounded=0;exitX=0.001;exitY=0.84;exitDx=0;exitDy=0;exitPerimeter=0;" edge="1" parent="1" source="5yJc1-C0Uq-N8i1GRbMO-24">
          <mxGeometry width="50" height="50" relative="1" as="geometry">
            <mxPoint x="970" y="390" as="sourcePoint" />
            <mxPoint x="540" y="380" as="targetPoint" />
          </mxGeometry>
        </mxCell>
        <mxCell id="5yJc1-C0Uq-N8i1GRbMO-24" value="Raspberry&lt;div&gt;Pi&lt;/div&gt;&lt;div&gt;Pico&lt;/div&gt;" style="rounded=0;whiteSpace=wrap;html=1;fillColor=#d5e8d4;strokeColor=#82b366;" vertex="1" parent="1">
          <mxGeometry x="1070" y="80" width="170" height="360" as="geometry" />
        </mxCell>
        <mxCell id="5yJc1-C0Uq-N8i1GRbMO-25" value="GND" style="text;html=1;align=left;verticalAlign=middle;whiteSpace=wrap;rounded=0;" vertex="1" parent="1">
          <mxGeometry x="1070" y="370" width="60" height="30" as="geometry" />
        </mxCell>
        <mxCell id="5yJc1-C0Uq-N8i1GRbMO-26" value="GP26 (ADC)" style="text;html=1;align=left;verticalAlign=middle;whiteSpace=wrap;rounded=0;" vertex="1" parent="1">
          <mxGeometry x="1070" y="245" width="60" height="30" as="geometry" />
        </mxCell>
        <mxCell id="5yJc1-C0Uq-N8i1GRbMO-27" value="" style="endArrow=none;html=1;rounded=0;" edge="1" parent="1">
          <mxGeometry width="50" height="50" relative="1" as="geometry">
            <mxPoint x="510" y="300" as="sourcePoint" />
            <mxPoint x="510" y="100" as="targetPoint" />
          </mxGeometry>
        </mxCell>
        <mxCell id="5yJc1-C0Uq-N8i1GRbMO-28" value="" style="endArrow=none;html=1;rounded=0;exitX=1;exitY=0.5;exitDx=0;exitDy=0;fillColor=#f8cecc;strokeColor=#b85450;" edge="1" parent="1">
          <mxGeometry width="50" height="50" relative="1" as="geometry">
            <mxPoint x="540" y="230" as="sourcePoint" />
            <mxPoint x="540" y="50" as="targetPoint" />
          </mxGeometry>
        </mxCell>
        <mxCell id="5yJc1-C0Uq-N8i1GRbMO-29" value="LM2596 Buck Converter to 5V" style="rounded=0;whiteSpace=wrap;html=1;fillColor=#dae8fc;strokeColor=#6c8ebf;" vertex="1" parent="1">
          <mxGeometry x="650" y="40" width="210" height="70" as="geometry" />
        </mxCell>
        <mxCell id="5yJc1-C0Uq-N8i1GRbMO-30" value="" style="endArrow=none;html=1;rounded=0;" edge="1" parent="1">
          <mxGeometry width="50" height="50" relative="1" as="geometry">
            <mxPoint x="510" y="100" as="sourcePoint" />
            <mxPoint x="650" y="99.99999999999997" as="targetPoint" />
          </mxGeometry>
        </mxCell>
        <mxCell id="5yJc1-C0Uq-N8i1GRbMO-31" value="" style="endArrow=none;html=1;rounded=0;fillColor=#f8cecc;strokeColor=#b85450;" edge="1" parent="1">
          <mxGeometry width="50" height="50" relative="1" as="geometry">
            <mxPoint x="540" y="50" as="sourcePoint" />
            <mxPoint x="650" y="50" as="targetPoint" />
          </mxGeometry>
        </mxCell>
        <mxCell id="5yJc1-C0Uq-N8i1GRbMO-32" value="+VIN" style="text;html=1;align=left;verticalAlign=middle;whiteSpace=wrap;rounded=0;" vertex="1" parent="1">
          <mxGeometry x="650" y="40" width="60" height="30" as="geometry" />
        </mxCell>
        <mxCell id="5yJc1-C0Uq-N8i1GRbMO-33" value="-VIN" style="text;html=1;align=left;verticalAlign=middle;whiteSpace=wrap;rounded=0;" vertex="1" parent="1">
          <mxGeometry x="650" y="80" width="60" height="30" as="geometry" />
        </mxCell>
        <mxCell id="5yJc1-C0Uq-N8i1GRbMO-34" value="+VOUT" style="text;html=1;align=right;verticalAlign=middle;whiteSpace=wrap;rounded=0;" vertex="1" parent="1">
          <mxGeometry x="800" y="40" width="60" height="30" as="geometry" />
        </mxCell>
        <mxCell id="5yJc1-C0Uq-N8i1GRbMO-35" value="-VOUT" style="text;html=1;align=right;verticalAlign=middle;whiteSpace=wrap;rounded=0;" vertex="1" parent="1">
          <mxGeometry x="800" y="80" width="60" height="30" as="geometry" />
        </mxCell>
        <mxCell id="5yJc1-C0Uq-N8i1GRbMO-37" value="" style="endArrow=none;html=1;rounded=0;exitX=1;exitY=0.5;exitDx=0;exitDy=0;fillColor=#f8cecc;strokeColor=#B85450;" edge="1" parent="1" source="5yJc1-C0Uq-N8i1GRbMO-34">
          <mxGeometry width="50" height="50" relative="1" as="geometry">
            <mxPoint x="1000" y="40" as="sourcePoint" />
            <mxPoint x="1760" y="54" as="targetPoint" />
          </mxGeometry>
        </mxCell>
        <mxCell id="5yJc1-C0Uq-N8i1GRbMO-38" value="" style="endArrow=none;html=1;rounded=0;exitX=1;exitY=0.5;exitDx=0;exitDy=0;fillColor=#f8cecc;strokeColor=#000000;" edge="1" parent="1">
          <mxGeometry width="50" height="50" relative="1" as="geometry">
            <mxPoint x="860" y="94.66" as="sourcePoint" />
            <mxPoint x="1030" y="94" as="targetPoint" />
          </mxGeometry>
        </mxCell>
        <mxCell id="5yJc1-C0Uq-N8i1GRbMO-39" value="" style="endArrow=none;html=1;rounded=0;exitX=1;exitY=0.5;exitDx=0;exitDy=0;fillColor=#f8cecc;strokeColor=#b85450;" edge="1" parent="1">
          <mxGeometry width="50" height="50" relative="1" as="geometry">
            <mxPoint x="940" y="55" as="sourcePoint" />
            <mxPoint x="940" y="120" as="targetPoint" />
          </mxGeometry>
        </mxCell>
        <mxCell id="5yJc1-C0Uq-N8i1GRbMO-40" value="" style="endArrow=none;html=1;rounded=0;fillColor=#f8cecc;strokeColor=#b85450;entryX=0.004;entryY=0.111;entryDx=0;entryDy=0;entryPerimeter=0;" edge="1" parent="1" target="5yJc1-C0Uq-N8i1GRbMO-24">
          <mxGeometry width="50" height="50" relative="1" as="geometry">
            <mxPoint x="940" y="120" as="sourcePoint" />
            <mxPoint x="990" y="165" as="targetPoint" />
          </mxGeometry>
        </mxCell>
        <mxCell id="5yJc1-C0Uq-N8i1GRbMO-41" value="VSYS" style="text;html=1;align=left;verticalAlign=middle;whiteSpace=wrap;rounded=0;" vertex="1" parent="1">
          <mxGeometry x="1070" y="104" width="60" height="30" as="geometry" />
        </mxCell>
        <mxCell id="5yJc1-C0Uq-N8i1GRbMO-42" value="" style="endArrow=none;html=1;rounded=0;fillColor=#f8cecc;strokeColor=#000000;" edge="1" parent="1">
          <mxGeometry width="50" height="50" relative="1" as="geometry">
            <mxPoint x="1030" y="94" as="sourcePoint" />
            <mxPoint x="1030" y="70" as="targetPoint" />
          </mxGeometry>
        </mxCell>
        <mxCell id="5yJc1-C0Uq-N8i1GRbMO-43" value="" style="endArrow=none;html=1;rounded=0;fillColor=#f8cecc;strokeColor=#000000;" edge="1" parent="1">
          <mxGeometry width="50" height="50" relative="1" as="geometry">
            <mxPoint x="1030" y="69.6" as="sourcePoint" />
            <mxPoint x="1740" y="70" as="targetPoint" />
          </mxGeometry>
        </mxCell>
        <mxCell id="5yJc1-C0Uq-N8i1GRbMO-44" value="" style="rounded=0;whiteSpace=wrap;html=1;fillColor=#f5f5f5;gradientColor=#b3b3b3;strokeColor=#2B2B2B;" vertex="1" parent="1">
          <mxGeometry x="1380" y="460" width="40" height="360" as="geometry" />
        </mxCell>
        <mxCell id="5yJc1-C0Uq-N8i1GRbMO-47" value="+5V" style="text;html=1;align=left;verticalAlign=middle;whiteSpace=wrap;rounded=0;fontSize=8;rotation=90;" vertex="1" parent="1">
          <mxGeometry x="1380" y="490" width="60" height="10" as="geometry" />
        </mxCell>
        <mxCell id="5yJc1-C0Uq-N8i1GRbMO-48" value="GND" style="text;html=1;align=left;verticalAlign=middle;whiteSpace=wrap;rounded=0;fontSize=8;rotation=90;" vertex="1" parent="1">
          <mxGeometry x="1360" y="490" width="60" height="10" as="geometry" />
        </mxCell>
        <mxCell id="5yJc1-C0Uq-N8i1GRbMO-49" value="Data" style="text;html=1;align=left;verticalAlign=middle;whiteSpace=wrap;rounded=0;fontSize=8;rotation=90;" vertex="1" parent="1">
          <mxGeometry x="1370" y="490" width="60" height="10" as="geometry" />
        </mxCell>
        <mxCell id="5yJc1-C0Uq-N8i1GRbMO-50" value="" style="rounded=0;whiteSpace=wrap;html=1;fillColor=#f5f5f5;gradientColor=#b3b3b3;strokeColor=#2B2B2B;" vertex="1" parent="1">
          <mxGeometry x="1430" y="460" width="40" height="360" as="geometry" />
        </mxCell>
        <mxCell id="5yJc1-C0Uq-N8i1GRbMO-51" value="+5V" style="text;html=1;align=left;verticalAlign=middle;whiteSpace=wrap;rounded=0;fontSize=8;rotation=90;" vertex="1" parent="1">
          <mxGeometry x="1430" y="490" width="60" height="10" as="geometry" />
        </mxCell>
        <mxCell id="5yJc1-C0Uq-N8i1GRbMO-52" value="GND" style="text;html=1;align=left;verticalAlign=middle;whiteSpace=wrap;rounded=0;fontSize=8;rotation=90;" vertex="1" parent="1">
          <mxGeometry x="1410" y="490" width="60" height="10" as="geometry" />
        </mxCell>
        <mxCell id="5yJc1-C0Uq-N8i1GRbMO-53" value="Data" style="text;html=1;align=left;verticalAlign=middle;whiteSpace=wrap;rounded=0;fontSize=8;rotation=90;" vertex="1" parent="1">
          <mxGeometry x="1420" y="490" width="60" height="10" as="geometry" />
        </mxCell>
        <mxCell id="5yJc1-C0Uq-N8i1GRbMO-54" value="" style="rounded=0;whiteSpace=wrap;html=1;fillColor=#f5f5f5;gradientColor=#b3b3b3;strokeColor=#2B2B2B;" vertex="1" parent="1">
          <mxGeometry x="1480" y="460" width="40" height="360" as="geometry" />
        </mxCell>
        <mxCell id="5yJc1-C0Uq-N8i1GRbMO-55" value="+5V" style="text;html=1;align=left;verticalAlign=middle;whiteSpace=wrap;rounded=0;fontSize=8;rotation=90;" vertex="1" parent="1">
          <mxGeometry x="1480" y="490" width="60" height="10" as="geometry" />
        </mxCell>
        <mxCell id="5yJc1-C0Uq-N8i1GRbMO-56" value="GND" style="text;html=1;align=left;verticalAlign=middle;whiteSpace=wrap;rounded=0;fontSize=8;rotation=90;" vertex="1" parent="1">
          <mxGeometry x="1460" y="490" width="60" height="10" as="geometry" />
        </mxCell>
        <mxCell id="5yJc1-C0Uq-N8i1GRbMO-57" value="Data" style="text;html=1;align=left;verticalAlign=middle;whiteSpace=wrap;rounded=0;fontSize=8;rotation=90;" vertex="1" parent="1">
          <mxGeometry x="1470" y="490" width="60" height="10" as="geometry" />
        </mxCell>
        <mxCell id="5yJc1-C0Uq-N8i1GRbMO-58" value="" style="rounded=0;whiteSpace=wrap;html=1;fillColor=#f5f5f5;gradientColor=#b3b3b3;strokeColor=#2B2B2B;" vertex="1" parent="1">
          <mxGeometry x="1530" y="460" width="40" height="360" as="geometry" />
        </mxCell>
        <mxCell id="5yJc1-C0Uq-N8i1GRbMO-59" value="+5V" style="text;html=1;align=left;verticalAlign=middle;whiteSpace=wrap;rounded=0;fontSize=8;rotation=90;" vertex="1" parent="1">
          <mxGeometry x="1530" y="490" width="60" height="10" as="geometry" />
        </mxCell>
        <mxCell id="5yJc1-C0Uq-N8i1GRbMO-60" value="GND" style="text;html=1;align=left;verticalAlign=middle;whiteSpace=wrap;rounded=0;fontSize=8;rotation=90;" vertex="1" parent="1">
          <mxGeometry x="1510" y="490" width="60" height="10" as="geometry" />
        </mxCell>
        <mxCell id="5yJc1-C0Uq-N8i1GRbMO-61" value="Data" style="text;html=1;align=left;verticalAlign=middle;whiteSpace=wrap;rounded=0;fontSize=8;rotation=90;" vertex="1" parent="1">
          <mxGeometry x="1520" y="490" width="60" height="10" as="geometry" />
        </mxCell>
        <mxCell id="5yJc1-C0Uq-N8i1GRbMO-62" value="" style="rounded=0;whiteSpace=wrap;html=1;fillColor=#f5f5f5;gradientColor=#b3b3b3;strokeColor=#2B2B2B;" vertex="1" parent="1">
          <mxGeometry x="1580" y="460" width="40" height="360" as="geometry" />
        </mxCell>
        <mxCell id="5yJc1-C0Uq-N8i1GRbMO-63" value="+5V" style="text;html=1;align=left;verticalAlign=middle;whiteSpace=wrap;rounded=0;fontSize=8;rotation=90;" vertex="1" parent="1">
          <mxGeometry x="1580" y="490" width="60" height="10" as="geometry" />
        </mxCell>
        <mxCell id="5yJc1-C0Uq-N8i1GRbMO-64" value="GND" style="text;html=1;align=left;verticalAlign=middle;whiteSpace=wrap;rounded=0;fontSize=8;rotation=90;" vertex="1" parent="1">
          <mxGeometry x="1560" y="490" width="60" height="10" as="geometry" />
        </mxCell>
        <mxCell id="5yJc1-C0Uq-N8i1GRbMO-65" value="Data" style="text;html=1;align=left;verticalAlign=middle;whiteSpace=wrap;rounded=0;fontSize=8;rotation=90;" vertex="1" parent="1">
          <mxGeometry x="1570" y="490" width="60" height="10" as="geometry" />
        </mxCell>
        <mxCell id="5yJc1-C0Uq-N8i1GRbMO-66" value="" style="rounded=0;whiteSpace=wrap;html=1;fillColor=#f5f5f5;gradientColor=#b3b3b3;strokeColor=#2B2B2B;" vertex="1" parent="1">
          <mxGeometry x="1630" y="460" width="40" height="360" as="geometry" />
        </mxCell>
        <mxCell id="5yJc1-C0Uq-N8i1GRbMO-67" value="+5V" style="text;html=1;align=left;verticalAlign=middle;whiteSpace=wrap;rounded=0;fontSize=8;rotation=90;" vertex="1" parent="1">
          <mxGeometry x="1630" y="490" width="60" height="10" as="geometry" />
        </mxCell>
        <mxCell id="5yJc1-C0Uq-N8i1GRbMO-68" value="GND" style="text;html=1;align=left;verticalAlign=middle;whiteSpace=wrap;rounded=0;fontSize=8;rotation=90;" vertex="1" parent="1">
          <mxGeometry x="1610" y="490" width="60" height="10" as="geometry" />
        </mxCell>
        <mxCell id="5yJc1-C0Uq-N8i1GRbMO-69" value="Data" style="text;html=1;align=left;verticalAlign=middle;whiteSpace=wrap;rounded=0;fontSize=8;rotation=90;" vertex="1" parent="1">
          <mxGeometry x="1620" y="490" width="60" height="10" as="geometry" />
        </mxCell>
        <mxCell id="5yJc1-C0Uq-N8i1GRbMO-70" value="" style="rounded=0;whiteSpace=wrap;html=1;fillColor=#f5f5f5;gradientColor=#b3b3b3;strokeColor=#2B2B2B;" vertex="1" parent="1">
          <mxGeometry x="1680" y="460" width="40" height="360" as="geometry" />
        </mxCell>
        <mxCell id="5yJc1-C0Uq-N8i1GRbMO-71" value="+5V" style="text;html=1;align=left;verticalAlign=middle;whiteSpace=wrap;rounded=0;fontSize=8;rotation=90;" vertex="1" parent="1">
          <mxGeometry x="1680" y="490" width="60" height="10" as="geometry" />
        </mxCell>
        <mxCell id="5yJc1-C0Uq-N8i1GRbMO-72" value="GND" style="text;html=1;align=left;verticalAlign=middle;whiteSpace=wrap;rounded=0;fontSize=8;rotation=90;" vertex="1" parent="1">
          <mxGeometry x="1660" y="490" width="60" height="10" as="geometry" />
        </mxCell>
        <mxCell id="5yJc1-C0Uq-N8i1GRbMO-73" value="Data" style="text;html=1;align=left;verticalAlign=middle;whiteSpace=wrap;rounded=0;fontSize=8;rotation=90;" vertex="1" parent="1">
          <mxGeometry x="1670" y="490" width="60" height="10" as="geometry" />
        </mxCell>
        <mxCell id="5yJc1-C0Uq-N8i1GRbMO-74" value="" style="rounded=0;whiteSpace=wrap;html=1;fillColor=#f5f5f5;gradientColor=#b3b3b3;strokeColor=#2B2B2B;" vertex="1" parent="1">
          <mxGeometry x="1730" y="460" width="40" height="360" as="geometry" />
        </mxCell>
        <mxCell id="5yJc1-C0Uq-N8i1GRbMO-75" value="+5V" style="text;html=1;align=left;verticalAlign=middle;whiteSpace=wrap;rounded=0;fontSize=8;rotation=90;" vertex="1" parent="1">
          <mxGeometry x="1730" y="490" width="60" height="10" as="geometry" />
        </mxCell>
        <mxCell id="5yJc1-C0Uq-N8i1GRbMO-76" value="GND" style="text;html=1;align=left;verticalAlign=middle;whiteSpace=wrap;rounded=0;fontSize=8;rotation=90;" vertex="1" parent="1">
          <mxGeometry x="1710" y="490" width="60" height="10" as="geometry" />
        </mxCell>
        <mxCell id="5yJc1-C0Uq-N8i1GRbMO-77" value="Data" style="text;html=1;align=left;verticalAlign=middle;whiteSpace=wrap;rounded=0;fontSize=8;rotation=90;" vertex="1" parent="1">
          <mxGeometry x="1720" y="490" width="60" height="10" as="geometry" />
        </mxCell>
        <mxCell id="5yJc1-C0Uq-N8i1GRbMO-78" value="" style="endArrow=none;html=1;rounded=0;fillColor=#f8cecc;strokeColor=#000000;" edge="1" parent="1">
          <mxGeometry width="50" height="50" relative="1" as="geometry">
            <mxPoint x="1740" y="460" as="sourcePoint" />
            <mxPoint x="1740" y="70" as="targetPoint" />
          </mxGeometry>
        </mxCell>
        <mxCell id="5yJc1-C0Uq-N8i1GRbMO-79" value="" style="endArrow=none;html=1;rounded=0;fillColor=#f8cecc;strokeColor=#B85450;" edge="1" parent="1">
          <mxGeometry width="50" height="50" relative="1" as="geometry">
            <mxPoint x="1759.8" y="460" as="sourcePoint" />
            <mxPoint x="1760" y="54" as="targetPoint" />
          </mxGeometry>
        </mxCell>
        <mxCell id="5yJc1-C0Uq-N8i1GRbMO-81" value="" style="endArrow=none;html=1;rounded=0;fillColor=#f8cecc;strokeColor=#B85450;" edge="1" parent="1">
          <mxGeometry width="50" height="50" relative="1" as="geometry">
            <mxPoint x="1709.1699999999998" y="460" as="sourcePoint" />
            <mxPoint x="1709.37" y="54" as="targetPoint" />
          </mxGeometry>
        </mxCell>
        <mxCell id="5yJc1-C0Uq-N8i1GRbMO-82" value="" style="endArrow=none;html=1;rounded=0;fillColor=#f8cecc;strokeColor=#B85450;" edge="1" parent="1">
          <mxGeometry width="50" height="50" relative="1" as="geometry">
            <mxPoint x="1659.1699999999998" y="460" as="sourcePoint" />
            <mxPoint x="1659.37" y="54" as="targetPoint" />
          </mxGeometry>
        </mxCell>
        <mxCell id="5yJc1-C0Uq-N8i1GRbMO-83" value="" style="endArrow=none;html=1;rounded=0;fillColor=#f8cecc;strokeColor=#B85450;" edge="1" parent="1">
          <mxGeometry width="50" height="50" relative="1" as="geometry">
            <mxPoint x="1609.1699999999998" y="460" as="sourcePoint" />
            <mxPoint x="1609.37" y="54" as="targetPoint" />
          </mxGeometry>
        </mxCell>
        <mxCell id="5yJc1-C0Uq-N8i1GRbMO-84" value="" style="endArrow=none;html=1;rounded=0;fillColor=#f8cecc;strokeColor=#B85450;" edge="1" parent="1">
          <mxGeometry width="50" height="50" relative="1" as="geometry">
            <mxPoint x="1559.1699999999998" y="460" as="sourcePoint" />
            <mxPoint x="1559.37" y="54" as="targetPoint" />
          </mxGeometry>
        </mxCell>
        <mxCell id="5yJc1-C0Uq-N8i1GRbMO-85" value="" style="endArrow=none;html=1;rounded=0;fillColor=#f8cecc;strokeColor=#B85450;" edge="1" parent="1">
          <mxGeometry width="50" height="50" relative="1" as="geometry">
            <mxPoint x="1509.9999999999998" y="460" as="sourcePoint" />
            <mxPoint x="1510.1999999999998" y="54" as="targetPoint" />
          </mxGeometry>
        </mxCell>
        <mxCell id="5yJc1-C0Uq-N8i1GRbMO-86" value="" style="endArrow=none;html=1;rounded=0;fillColor=#f8cecc;strokeColor=#B85450;" edge="1" parent="1">
          <mxGeometry width="50" height="50" relative="1" as="geometry">
            <mxPoint x="1459.9999999999998" y="460" as="sourcePoint" />
            <mxPoint x="1460.1999999999998" y="54" as="targetPoint" />
          </mxGeometry>
        </mxCell>
        <mxCell id="5yJc1-C0Uq-N8i1GRbMO-87" value="" style="endArrow=none;html=1;rounded=0;fillColor=#f8cecc;strokeColor=#B85450;" edge="1" parent="1">
          <mxGeometry width="50" height="50" relative="1" as="geometry">
            <mxPoint x="1409.9999999999998" y="460" as="sourcePoint" />
            <mxPoint x="1410.1999999999998" y="54" as="targetPoint" />
          </mxGeometry>
        </mxCell>
        <mxCell id="5yJc1-C0Uq-N8i1GRbMO-88" value="" style="endArrow=none;html=1;rounded=0;fillColor=#f8cecc;strokeColor=#000000;" edge="1" parent="1">
          <mxGeometry width="50" height="50" relative="1" as="geometry">
            <mxPoint x="1689.58" y="460" as="sourcePoint" />
            <mxPoint x="1689.58" y="70" as="targetPoint" />
          </mxGeometry>
        </mxCell>
        <mxCell id="5yJc1-C0Uq-N8i1GRbMO-89" value="" style="endArrow=none;html=1;rounded=0;fillColor=#f8cecc;strokeColor=#000000;" edge="1" parent="1">
          <mxGeometry width="50" height="50" relative="1" as="geometry">
            <mxPoint x="1639.58" y="460" as="sourcePoint" />
            <mxPoint x="1639.58" y="70" as="targetPoint" />
          </mxGeometry>
        </mxCell>
        <mxCell id="5yJc1-C0Uq-N8i1GRbMO-90" value="" style="endArrow=none;html=1;rounded=0;fillColor=#f8cecc;strokeColor=#000000;" edge="1" parent="1">
          <mxGeometry width="50" height="50" relative="1" as="geometry">
            <mxPoint x="1589.58" y="460" as="sourcePoint" />
            <mxPoint x="1589.58" y="70" as="targetPoint" />
          </mxGeometry>
        </mxCell>
        <mxCell id="5yJc1-C0Uq-N8i1GRbMO-91" value="" style="endArrow=none;html=1;rounded=0;fillColor=#f8cecc;strokeColor=#000000;" edge="1" parent="1">
          <mxGeometry width="50" height="50" relative="1" as="geometry">
            <mxPoint x="1539.58" y="460" as="sourcePoint" />
            <mxPoint x="1539.58" y="70" as="targetPoint" />
          </mxGeometry>
        </mxCell>
        <mxCell id="5yJc1-C0Uq-N8i1GRbMO-92" value="" style="endArrow=none;html=1;rounded=0;fillColor=#f8cecc;strokeColor=#000000;" edge="1" parent="1">
          <mxGeometry width="50" height="50" relative="1" as="geometry">
            <mxPoint x="1489.58" y="460" as="sourcePoint" />
            <mxPoint x="1489.58" y="70" as="targetPoint" />
          </mxGeometry>
        </mxCell>
        <mxCell id="5yJc1-C0Uq-N8i1GRbMO-93" value="" style="endArrow=none;html=1;rounded=0;fillColor=#f8cecc;strokeColor=#000000;" edge="1" parent="1">
          <mxGeometry width="50" height="50" relative="1" as="geometry">
            <mxPoint x="1439.58" y="460" as="sourcePoint" />
            <mxPoint x="1439.58" y="70" as="targetPoint" />
          </mxGeometry>
        </mxCell>
        <mxCell id="5yJc1-C0Uq-N8i1GRbMO-94" value="" style="endArrow=none;html=1;rounded=0;fillColor=#f8cecc;strokeColor=#000000;" edge="1" parent="1">
          <mxGeometry width="50" height="50" relative="1" as="geometry">
            <mxPoint x="1389.58" y="460" as="sourcePoint" />
            <mxPoint x="1389.58" y="70" as="targetPoint" />
          </mxGeometry>
        </mxCell>
        <mxCell id="5yJc1-C0Uq-N8i1GRbMO-95" value="" style="endArrow=none;html=1;rounded=0;fillColor=#1ba1e2;strokeColor=#006EAF;" edge="1" parent="1">
          <mxGeometry width="50" height="50" relative="1" as="geometry">
            <mxPoint x="1749.8" y="460" as="sourcePoint" />
            <mxPoint x="1750" y="310" as="targetPoint" />
          </mxGeometry>
        </mxCell>
        <mxCell id="5yJc1-C0Uq-N8i1GRbMO-96" value="" style="endArrow=none;html=1;rounded=0;fillColor=#1ba1e2;strokeColor=#006EAF;" edge="1" parent="1">
          <mxGeometry width="50" height="50" relative="1" as="geometry">
            <mxPoint x="1399.8" y="460" as="sourcePoint" />
            <mxPoint x="1400" y="100" as="targetPoint" />
          </mxGeometry>
        </mxCell>
        <mxCell id="5yJc1-C0Uq-N8i1GRbMO-97" value="" style="endArrow=none;html=1;rounded=0;fillColor=#1ba1e2;strokeColor=#006EAF;exitX=1.006;exitY=0.054;exitDx=0;exitDy=0;exitPerimeter=0;" edge="1" parent="1" source="5yJc1-C0Uq-N8i1GRbMO-24">
          <mxGeometry width="50" height="50" relative="1" as="geometry">
            <mxPoint x="1310" y="100" as="sourcePoint" />
            <mxPoint x="1400" y="100" as="targetPoint" />
          </mxGeometry>
        </mxCell>
        <mxCell id="5yJc1-C0Uq-N8i1GRbMO-98" value="GP00" style="text;html=1;align=right;verticalAlign=middle;whiteSpace=wrap;rounded=0;" vertex="1" parent="1">
          <mxGeometry x="1180" y="85" width="60" height="30" as="geometry" />
        </mxCell>
        <mxCell id="5yJc1-C0Uq-N8i1GRbMO-99" value="GP00" style="text;html=1;align=right;verticalAlign=middle;whiteSpace=wrap;rounded=0;" vertex="1" parent="1">
          <mxGeometry x="1180" y="115" width="60" height="30" as="geometry" />
        </mxCell>
        <mxCell id="5yJc1-C0Uq-N8i1GRbMO-102" value="GP00" style="text;html=1;align=right;verticalAlign=middle;whiteSpace=wrap;rounded=0;" vertex="1" parent="1">
          <mxGeometry x="1180" y="145" width="60" height="30" as="geometry" />
        </mxCell>
        <mxCell id="5yJc1-C0Uq-N8i1GRbMO-103" value="GP00" style="text;html=1;align=right;verticalAlign=middle;whiteSpace=wrap;rounded=0;" vertex="1" parent="1">
          <mxGeometry x="1180" y="175" width="60" height="30" as="geometry" />
        </mxCell>
        <mxCell id="5yJc1-C0Uq-N8i1GRbMO-108" value="GP00" style="text;html=1;align=right;verticalAlign=middle;whiteSpace=wrap;rounded=0;" vertex="1" parent="1">
          <mxGeometry x="1180" y="205" width="60" height="30" as="geometry" />
        </mxCell>
        <mxCell id="5yJc1-C0Uq-N8i1GRbMO-109" value="GP00" style="text;html=1;align=right;verticalAlign=middle;whiteSpace=wrap;rounded=0;" vertex="1" parent="1">
          <mxGeometry x="1180" y="235" width="60" height="30" as="geometry" />
        </mxCell>
        <mxCell id="5yJc1-C0Uq-N8i1GRbMO-110" value="GP00" style="text;html=1;align=right;verticalAlign=middle;whiteSpace=wrap;rounded=0;" vertex="1" parent="1">
          <mxGeometry x="1180" y="265" width="60" height="30" as="geometry" />
        </mxCell>
        <mxCell id="5yJc1-C0Uq-N8i1GRbMO-111" value="GP00" style="text;html=1;align=right;verticalAlign=middle;whiteSpace=wrap;rounded=0;" vertex="1" parent="1">
          <mxGeometry x="1180" y="295" width="60" height="30" as="geometry" />
        </mxCell>
        <mxCell id="5yJc1-C0Uq-N8i1GRbMO-112" value="" style="endArrow=none;html=1;rounded=0;fillColor=#1ba1e2;strokeColor=#006EAF;exitX=1.006;exitY=0.054;exitDx=0;exitDy=0;exitPerimeter=0;" edge="1" parent="1">
          <mxGeometry width="50" height="50" relative="1" as="geometry">
            <mxPoint x="1240" y="129.5" as="sourcePoint" />
            <mxPoint x="1450" y="130" as="targetPoint" />
          </mxGeometry>
        </mxCell>
        <mxCell id="5yJc1-C0Uq-N8i1GRbMO-113" value="" style="endArrow=none;html=1;rounded=0;fillColor=#1ba1e2;strokeColor=#006EAF;exitX=1.006;exitY=0.054;exitDx=0;exitDy=0;exitPerimeter=0;" edge="1" parent="1">
          <mxGeometry width="50" height="50" relative="1" as="geometry">
            <mxPoint x="1240" y="159.5" as="sourcePoint" />
            <mxPoint x="1500" y="161" as="targetPoint" />
          </mxGeometry>
        </mxCell>
        <mxCell id="5yJc1-C0Uq-N8i1GRbMO-114" value="" style="endArrow=none;html=1;rounded=0;fillColor=#1ba1e2;strokeColor=#006EAF;exitX=1.006;exitY=0.054;exitDx=0;exitDy=0;exitPerimeter=0;" edge="1" parent="1">
          <mxGeometry width="50" height="50" relative="1" as="geometry">
            <mxPoint x="1240" y="189.5" as="sourcePoint" />
            <mxPoint x="1550" y="190" as="targetPoint" />
          </mxGeometry>
        </mxCell>
        <mxCell id="5yJc1-C0Uq-N8i1GRbMO-115" value="" style="endArrow=none;html=1;rounded=0;fillColor=#1ba1e2;strokeColor=#006EAF;exitX=1.006;exitY=0.054;exitDx=0;exitDy=0;exitPerimeter=0;" edge="1" parent="1">
          <mxGeometry width="50" height="50" relative="1" as="geometry">
            <mxPoint x="1240" y="219.5" as="sourcePoint" />
            <mxPoint x="1600" y="220" as="targetPoint" />
          </mxGeometry>
        </mxCell>
        <mxCell id="5yJc1-C0Uq-N8i1GRbMO-116" value="" style="endArrow=none;html=1;rounded=0;fillColor=#1ba1e2;strokeColor=#006EAF;exitX=1.006;exitY=0.054;exitDx=0;exitDy=0;exitPerimeter=0;" edge="1" parent="1">
          <mxGeometry width="50" height="50" relative="1" as="geometry">
            <mxPoint x="1240" y="249.5" as="sourcePoint" />
            <mxPoint x="1650" y="250" as="targetPoint" />
          </mxGeometry>
        </mxCell>
        <mxCell id="5yJc1-C0Uq-N8i1GRbMO-117" value="" style="endArrow=none;html=1;rounded=0;fillColor=#1ba1e2;strokeColor=#006EAF;exitX=1.006;exitY=0.054;exitDx=0;exitDy=0;exitPerimeter=0;" edge="1" parent="1">
          <mxGeometry width="50" height="50" relative="1" as="geometry">
            <mxPoint x="1240" y="279.5" as="sourcePoint" />
            <mxPoint x="1700" y="280" as="targetPoint" />
          </mxGeometry>
        </mxCell>
        <mxCell id="5yJc1-C0Uq-N8i1GRbMO-118" value="" style="endArrow=none;html=1;rounded=0;fillColor=#1ba1e2;strokeColor=#006EAF;exitX=1.006;exitY=0.054;exitDx=0;exitDy=0;exitPerimeter=0;" edge="1" parent="1">
          <mxGeometry width="50" height="50" relative="1" as="geometry">
            <mxPoint x="1240" y="309.5" as="sourcePoint" />
            <mxPoint x="1750" y="310" as="targetPoint" />
          </mxGeometry>
        </mxCell>
        <mxCell id="5yJc1-C0Uq-N8i1GRbMO-119" value="" style="endArrow=none;html=1;rounded=0;fillColor=#1ba1e2;strokeColor=#006EAF;" edge="1" parent="1">
          <mxGeometry width="50" height="50" relative="1" as="geometry">
            <mxPoint x="1449.6599999999999" y="460" as="sourcePoint" />
            <mxPoint x="1450" y="130" as="targetPoint" />
          </mxGeometry>
        </mxCell>
        <mxCell id="5yJc1-C0Uq-N8i1GRbMO-120" value="" style="endArrow=none;html=1;rounded=0;fillColor=#1ba1e2;strokeColor=#006EAF;" edge="1" parent="1">
          <mxGeometry width="50" height="50" relative="1" as="geometry">
            <mxPoint x="1499.6599999999999" y="460" as="sourcePoint" />
            <mxPoint x="1500" y="160" as="targetPoint" />
          </mxGeometry>
        </mxCell>
        <mxCell id="5yJc1-C0Uq-N8i1GRbMO-121" value="" style="endArrow=none;html=1;rounded=0;fillColor=#1ba1e2;strokeColor=#006EAF;" edge="1" parent="1">
          <mxGeometry width="50" height="50" relative="1" as="geometry">
            <mxPoint x="1549.6599999999999" y="460" as="sourcePoint" />
            <mxPoint x="1550" y="190" as="targetPoint" />
          </mxGeometry>
        </mxCell>
        <mxCell id="5yJc1-C0Uq-N8i1GRbMO-122" value="" style="endArrow=none;html=1;rounded=0;fillColor=#1ba1e2;strokeColor=#006EAF;" edge="1" parent="1">
          <mxGeometry width="50" height="50" relative="1" as="geometry">
            <mxPoint x="1599.6599999999999" y="460" as="sourcePoint" />
            <mxPoint x="1600" y="220" as="targetPoint" />
          </mxGeometry>
        </mxCell>
        <mxCell id="5yJc1-C0Uq-N8i1GRbMO-123" value="" style="endArrow=none;html=1;rounded=0;fillColor=#1ba1e2;strokeColor=#006EAF;" edge="1" parent="1">
          <mxGeometry width="50" height="50" relative="1" as="geometry">
            <mxPoint x="1649.6599999999999" y="460" as="sourcePoint" />
            <mxPoint x="1650" y="250" as="targetPoint" />
          </mxGeometry>
        </mxCell>
        <mxCell id="5yJc1-C0Uq-N8i1GRbMO-124" value="" style="endArrow=none;html=1;rounded=0;fillColor=#1ba1e2;strokeColor=#006EAF;" edge="1" parent="1">
          <mxGeometry width="50" height="50" relative="1" as="geometry">
            <mxPoint x="1699.6599999999999" y="460" as="sourcePoint" />
            <mxPoint x="1700" y="280" as="targetPoint" />
          </mxGeometry>
        </mxCell>
        <mxCell id="5yJc1-C0Uq-N8i1GRbMO-126" value="A 100k ohm resistor on the positive terminal, and 47k ohm resistor on the negative terminal will cut voltage to 32% of the actual reflected voltage&lt;div style=&quot;font-size: 8px;&quot;&gt;&lt;br style=&quot;font-size: 8px;&quot;&gt;&lt;/div&gt;&lt;div style=&quot;font-size: 8px;&quot;&gt;8.4v (two 18650&#39;s @ 100%, in series) --&amp;gt; 2.69v&lt;/div&gt;&lt;div style=&quot;font-size: 8px;&quot;&gt;6.0v (two 18650&#39;s @ 0%, in series) --&amp;gt; 1.92v&lt;/div&gt;&lt;div style=&quot;font-size: 8px;&quot;&gt;&lt;br&gt;&lt;/div&gt;&lt;div style=&quot;&quot;&gt;&lt;font style=&quot;font-size: 6px;&quot;&gt;See this Voltage Divider Calculator for further info:&amp;nbsp;https://ohmslawcalculator.com/voltage-divider-calculator&lt;/font&gt;&lt;/div&gt;" style="text;html=1;align=left;verticalAlign=middle;whiteSpace=wrap;rounded=0;fontSize=8;fillColor=#D5E8D4;strokeColor=#6B6B6B;" vertex="1" parent="1">
          <mxGeometry x="670" y="152.5" width="190" height="92.5" as="geometry" />
        </mxCell>
      </root>
    </mxGraphModel>
  </diagram>
</mxfile>
